<svg width="84" height="27" viewBox="0 0 84 27" fill="none" xmlns="http://www.w3.org/2000/svg">
<mask id="path-1-inside-1_577_10584" fill="white">
<path d="M0 0H84V27H0V0Z"/>
</mask>
<path d="M84 27V18H0V27V36H84V27Z" fill="#E6E6E6" mask="url(#path-1-inside-1_577_10584)"/>
<path d="M1.92 20L6.66 5.18H10.16L14.9 20H11.78L9.68 12.28C9.45333 11.5067 9.23333 10.7067 9.02 9.88C8.82 9.04 8.60667 8.22667 8.38 7.44H8.3C8.11333 8.24 7.90667 9.05333 7.68 9.88C7.46667 10.7067 7.25333 11.5067 7.04 12.28L4.92 20H1.92ZM4.86 16.2V13.9H11.9V16.2H4.86ZM16.6325 20V5.18H19.5925V20H16.6325ZM40.1653 3.24H42.7053V21.76H40.1653V3.24ZM32.8453 10.34H36.7853V12.46H32.8453V10.34ZM36.2653 3.64H38.7453V20.94H36.2653V3.64ZM32.2453 5.42H34.8053C34.8053 7.18 34.5986 8.82 34.1853 10.34C33.772 11.86 33.072 13.2533 32.0853 14.52C31.112 15.7867 29.7586 16.92 28.0253 17.92L26.5253 16.06C27.9253 15.22 29.0386 14.3067 29.8653 13.32C30.7053 12.32 31.312 11.22 31.6853 10.02C32.0586 8.80667 32.2453 7.45333 32.2453 5.96V5.42ZM27.5453 5.42H33.0653V7.56H27.5453V5.42ZM57.8838 3.26H60.5438V13.74H57.8838V3.26ZM48.2238 14.56H60.5438V21.58H48.2238V14.56ZM57.9438 16.66H50.8438V19.48H57.9438V16.66ZM50.4638 4.1C51.4238 4.1 52.2838 4.29333 53.0438 4.68C53.8038 5.05333 54.4038 5.57333 54.8438 6.24C55.2838 6.90667 55.5038 7.67333 55.5038 8.54C55.5038 9.40667 55.2838 10.18 54.8438 10.86C54.4038 11.5267 53.8038 12.0533 53.0438 12.44C52.2838 12.8133 51.4238 13 50.4638 13C49.5038 13 48.6438 12.8133 47.8838 12.44C47.1238 12.0533 46.5238 11.5267 46.0838 10.86C45.6438 10.18 45.4238 9.40667 45.4238 8.54C45.4238 7.67333 45.6438 6.90667 46.0838 6.24C46.5238 5.57333 47.1238 5.05333 47.8838 4.68C48.6438 4.29333 49.5038 4.1 50.4638 4.1ZM50.4638 6.3C50.0104 6.3 49.5971 6.39333 49.2238 6.58C48.8504 6.75333 48.5571 7.00667 48.3438 7.34C48.1304 7.66 48.0238 8.06 48.0238 8.54C48.0238 9.00667 48.1304 9.41333 48.3438 9.76C48.5571 10.0933 48.8504 10.3467 49.2238 10.52C49.5971 10.6933 50.0104 10.78 50.4638 10.78C50.9304 10.78 51.3438 10.6933 51.7038 10.52C52.0771 10.3467 52.3704 10.0933 52.5838 9.76C52.7971 9.41333 52.9038 9.00667 52.9038 8.54C52.9038 8.06 52.7971 7.66 52.5838 7.34C52.3704 7.00667 52.0771 6.75333 51.7038 6.58C51.3438 6.39333 50.9304 6.3 50.4638 6.3ZM63.5622 17.4H80.3422V19.56H63.5622V17.4ZM70.5222 5.82H72.7822V6.86C72.7822 7.64667 72.6689 8.39333 72.4422 9.1C72.2289 9.80667 71.9089 10.4667 71.4822 11.08C71.0689 11.68 70.5555 12.2267 69.9422 12.72C69.3289 13.2 68.6289 13.6133 67.8422 13.96C67.0555 14.3067 66.1955 14.5667 65.2622 14.74L64.2022 12.6C65.0289 12.4667 65.7755 12.2667 66.4422 12C67.1222 11.7333 67.7155 11.4133 68.2222 11.04C68.7289 10.6667 69.1489 10.26 69.4822 9.82C69.8289 9.36667 70.0889 8.89333 70.2622 8.4C70.4355 7.89333 70.5222 7.38 70.5222 6.86V5.82ZM71.0822 5.82H73.3222V6.86C73.3222 7.38 73.4089 7.88667 73.5822 8.38C73.7555 8.87333 74.0155 9.34667 74.3622 9.8C74.7089 10.24 75.1355 10.6467 75.6422 11.02C76.1622 11.38 76.7622 11.6933 77.4422 11.96C78.1355 12.2133 78.9022 12.4 79.7422 12.52L78.7022 14.64C77.7422 14.4667 76.8622 14.2133 76.0622 13.88C75.2755 13.5467 74.5689 13.14 73.9422 12.66C73.3289 12.18 72.8089 11.64 72.3822 11.04C71.9555 10.44 71.6289 9.79333 71.4022 9.1C71.1889 8.39333 71.0822 7.64667 71.0822 6.86V5.82ZM64.9422 4.8H78.9022V6.92H64.9422V4.8Z" fill="#1C1C1C"/>
</svg>
