<svg width="84" height="27" viewBox="0 0 84 27" fill="none" xmlns="http://www.w3.org/2000/svg">
<mask id="path-1-inside-1_577_10349" fill="white">
<path d="M0.5 0H83.5V27H0.5V0Z"/>
</mask>
<path d="M83.5 27V18H0.5V27V36H83.5V27Z" fill="#E6E6E6" mask="url(#path-1-inside-1_577_10349)"/>
<path d="M2.42 20L7.16 5.18H10.66L15.4 20H12.28L10.18 12.28C9.95333 11.5067 9.73333 10.7067 9.52 9.88C9.32 9.04 9.10667 8.22667 8.88 7.44H8.8C8.61333 8.24 8.40667 9.05333 8.18 9.88C7.96667 10.7067 7.75333 11.5067 7.54 12.28L5.42 20H2.42ZM5.36 16.2V13.9H12.4V16.2H5.36ZM17.1325 20V5.18H20.0925V20H17.1325ZM28.2653 20V5.18H31.2853L35.5853 13.08L37.0853 16.28H37.1853C37.1053 15.5067 37.0186 14.66 36.9253 13.74C36.832 12.82 36.7853 11.94 36.7853 11.1V5.18H39.5853V20H36.5653L32.3053 12.08L30.8053 8.9H30.7053C30.772 9.7 30.852 10.5467 30.9453 11.44C31.0386 12.3333 31.0853 13.2067 31.0853 14.06V20H28.2653ZM49.1258 20.28C47.8191 20.28 46.6658 19.9733 45.6658 19.36C44.6791 18.7333 43.9058 17.84 43.3458 16.68C42.7858 15.52 42.5058 14.1333 42.5058 12.52C42.5058 10.92 42.7858 9.55333 43.3458 8.42C43.9058 7.28667 44.6791 6.42 45.6658 5.82C46.6658 5.22 47.8191 4.92 49.1258 4.92C50.4458 4.92 51.5991 5.22667 52.5858 5.84C53.5724 6.44 54.3458 7.30667 54.9058 8.44C55.4658 9.56 55.7458 10.92 55.7458 12.52C55.7458 14.1333 55.4658 15.52 54.9058 16.68C54.3458 17.84 53.5724 18.7333 52.5858 19.36C51.5991 19.9733 50.4458 20.28 49.1258 20.28ZM49.1258 17.72C49.8591 17.72 50.4924 17.5067 51.0258 17.08C51.5724 16.6533 51.9924 16.0533 52.2858 15.28C52.5791 14.4933 52.7258 13.5733 52.7258 12.52C52.7258 11.4667 52.5791 10.5667 52.2858 9.82C51.9924 9.06 51.5724 8.48 51.0258 8.08C50.4924 7.66667 49.8591 7.46 49.1258 7.46C48.3924 7.46 47.7524 7.66667 47.2058 8.08C46.6724 8.48 46.2591 9.06 45.9658 9.82C45.6858 10.5667 45.5458 11.4667 45.5458 12.52C45.5458 13.5733 45.6858 14.4933 45.9658 15.28C46.2591 16.0533 46.6724 16.6533 47.2058 17.08C47.7524 17.5067 48.3924 17.72 49.1258 17.72ZM60.9044 20L56.3844 5.18H59.5044L61.4444 12.4C61.6844 13.2133 61.891 14.0067 62.0644 14.78C62.251 15.54 62.4577 16.34 62.6844 17.18H62.7844C63.0244 16.34 63.2377 15.54 63.4244 14.78C63.611 14.0067 63.8177 13.2133 64.0444 12.4L65.9644 5.18H68.9644L64.4444 20H60.9044ZM68.2989 20L73.0389 5.18H76.5389L81.2789 20H78.1589L76.0589 12.28C75.8322 11.5067 75.6122 10.7067 75.3989 9.88C75.1989 9.04 74.9856 8.22667 74.7589 7.44H74.6789C74.4922 8.24 74.2856 9.05333 74.0589 9.88C73.8456 10.7067 73.6322 11.5067 73.4189 12.28L71.2989 20H68.2989ZM71.2389 16.2V13.9H78.2789V16.2H71.2389Z" fill="#1C1C1C"/>
</svg>
