<svg width="84" height="27" viewBox="0 0 84 27" fill="none" xmlns="http://www.w3.org/2000/svg">
<mask id="path-1-inside-1_577_10430" fill="white">
<path d="M0 0H84V27H0V0Z"/>
</mask>
<path d="M84 27V18H0V27V36H84V27Z" fill="#E6E6E6" mask="url(#path-1-inside-1_577_10430)"/>
<path d="M1.92 20L6.66 5.18H10.16L14.9 20H11.78L9.68 12.28C9.45333 11.5067 9.23333 10.7067 9.02 9.88C8.82 9.04 8.60667 8.22667 8.38 7.44H8.3C8.11333 8.24 7.90667 9.05333 7.68 9.88C7.46667 10.7067 7.25333 11.5067 7.04 12.28L4.92 20H1.92ZM4.86 16.2V13.9H11.9V16.2H4.86ZM16.6325 20V5.18H19.5925V20H16.6325ZM40.1653 3.24H42.6853V14.18H40.1653V3.24ZM33.1253 6.76H37.0653V8.9H33.1253V6.76ZM36.3653 3.6H38.8453V14.04H36.3653V3.6ZM27.6253 4.56H30.2453V11.6H27.6253V4.56ZM27.6253 11.28H28.8853C29.992 11.28 31.0386 11.2467 32.0253 11.18C33.012 11.1 34.0253 10.9533 35.0653 10.74L35.3653 12.84C34.272 13.08 33.212 13.24 32.1853 13.32C31.1586 13.3867 30.0586 13.42 28.8853 13.42H27.6253V11.28ZM29.9053 15H42.6853V21.78H40.0053V17.12H29.9053V15ZM54.5038 9.04H59.3838V11.18H54.5038V9.04ZM49.4638 4.66H51.6038V7.36C51.6038 8.52 51.5038 9.64667 51.3038 10.74C51.1038 11.8333 50.7971 12.8533 50.3838 13.8C49.9704 14.7467 49.4438 15.58 48.8038 16.3C48.1771 17.02 47.4304 17.6 46.5638 18.04L44.9038 15.92C45.6904 15.5467 46.3638 15.06 46.9238 14.46C47.4971 13.86 47.9704 13.18 48.3438 12.42C48.7304 11.6467 49.0104 10.8333 49.1838 9.98C49.3704 9.11333 49.4638 8.24 49.4638 7.36V4.66ZM50.0038 4.66H52.1238V7.36C52.1238 8.22667 52.2104 9.08667 52.3838 9.94C52.5571 10.78 52.8171 11.5667 53.1638 12.3C53.5238 13.0333 53.9838 13.6867 54.5438 14.26C55.1038 14.82 55.7704 15.2733 56.5438 15.62L54.9438 17.74C54.0771 17.3133 53.3304 16.7533 52.7038 16.06C52.0771 15.3533 51.5638 14.5467 51.1638 13.64C50.7771 12.7333 50.4838 11.7467 50.2838 10.68C50.0971 9.61333 50.0038 8.50667 50.0038 7.36V4.66ZM58.0438 3.22H60.7038V21.8H58.0438V3.22ZM70.4422 4.32H72.7422V5.66C72.7422 6.46 72.6289 7.24 72.4022 8C72.1889 8.74667 71.8689 9.45333 71.4422 10.12C71.0155 10.7867 70.4889 11.3933 69.8622 11.94C69.2489 12.4733 68.5422 12.9333 67.7422 13.32C66.9422 13.7067 66.0622 13.9933 65.1022 14.18L63.9622 11.96C64.7889 11.8133 65.5422 11.5933 66.2222 11.3C66.9155 10.9933 67.5222 10.6267 68.0422 10.2C68.5622 9.77333 69.0022 9.31333 69.3622 8.82C69.7222 8.31333 69.9889 7.79333 70.1622 7.26C70.3489 6.71333 70.4422 6.18 70.4422 5.66V4.32ZM70.9622 4.32H73.2822V5.66C73.2822 6.19333 73.3689 6.73333 73.5422 7.28C73.7289 7.82667 73.9955 8.35333 74.3422 8.86C74.7022 9.35333 75.1422 9.80667 75.6622 10.22C76.1822 10.6333 76.7822 10.9933 77.4622 11.3C78.1422 11.5933 78.9089 11.8133 79.7622 11.96L78.6222 14.18C77.6622 13.9933 76.7822 13.7067 75.9822 13.32C75.1822 12.9333 74.4689 12.4733 73.8422 11.94C73.2289 11.4067 72.7022 10.8067 72.2622 10.14C71.8355 9.47333 71.5089 8.76 71.2822 8C71.0689 7.24 70.9622 6.46 70.9622 5.66V4.32ZM63.5622 17.34H80.3422V19.52H63.5622V17.34Z" fill="#1C1C1C"/>
</svg>
