<svg width="84" height="27" viewBox="0 0 84 27" fill="none" xmlns="http://www.w3.org/2000/svg">
<mask id="path-1-inside-1_577_10521" fill="white">
<path d="M0 0H84V27H0V0Z"/>
</mask>
<path d="M84 27V18H0V27V36H84V27Z" fill="#E6E6E6" mask="url(#path-1-inside-1_577_10521)"/>
<path d="M1.92 20L6.66 5.18H10.16L14.9 20H11.78L9.68 12.28C9.45333 11.5067 9.23333 10.7067 9.02 9.88C8.82 9.04 8.60667 8.22667 8.38 7.44H8.3C8.11333 8.24 7.90667 9.05333 7.68 9.88C7.46667 10.7067 7.25333 11.5067 7.04 12.28L4.92 20H1.92ZM4.86 16.2V13.9H11.9V16.2H4.86ZM16.6325 20V5.18H19.5925V20H16.6325ZM26.7653 17.46H43.5453V19.64H26.7653V17.46ZM28.0453 4.84H42.1653V6.98H28.0453V4.84ZM28.1453 12.52H42.1053V14.64H28.1453V12.52ZM30.5653 6.82H33.2253V12.72H30.5653V6.82ZM36.9853 6.82H39.6453V12.72H36.9853V6.82ZM57.9038 3.22H60.5838V21.8H57.9038V3.22ZM46.1638 15.32H47.8038C48.8971 15.32 49.9304 15.3067 50.9038 15.28C51.8771 15.24 52.8304 15.18 53.7638 15.1C54.6971 15.0067 55.6504 14.8733 56.6238 14.7L56.9038 16.84C55.4104 17.1067 53.9371 17.2867 52.4838 17.38C51.0438 17.46 49.4838 17.5 47.8038 17.5H46.1638V15.32ZM46.1238 4.8H54.8638V11.98H48.8638V16.14H46.1638V9.88H52.1638V6.94H46.1238V4.8ZM70.1022 5.04H72.4622V5.48C72.4622 6.04 72.3622 6.57333 72.1622 7.08C71.9622 7.58667 71.6622 8.06 71.2622 8.5C70.8755 8.92667 70.3889 9.31333 69.8022 9.66C69.2155 10.0067 68.5355 10.2933 67.7622 10.52C66.9889 10.7333 66.1289 10.8867 65.1822 10.98L64.2622 8.9C65.0755 8.83333 65.7955 8.72 66.4222 8.56C67.0622 8.38667 67.6089 8.18667 68.0622 7.96C68.5289 7.72 68.9089 7.46667 69.2022 7.2C69.5089 6.93333 69.7355 6.65333 69.8822 6.36C70.0289 6.05333 70.1022 5.76 70.1022 5.48V5.04ZM71.4022 5.04H73.7422V5.48C73.7422 5.77333 73.8155 6.07333 73.9622 6.38C74.1089 6.67333 74.3289 6.95333 74.6222 7.22C74.9289 7.48667 75.3089 7.74 75.7622 7.98C76.2289 8.20667 76.7755 8.4 77.4022 8.56C78.0422 8.72 78.7689 8.83333 79.5822 8.9L78.6622 10.98C77.7155 10.8867 76.8555 10.7333 76.0822 10.52C75.3089 10.2933 74.6289 10.0067 74.0422 9.66C73.4689 9.31333 72.9822 8.92667 72.5822 8.5C72.1955 8.06 71.9022 7.58667 71.7022 7.08C71.5022 6.57333 71.4022 6.04 71.4022 5.48V5.04ZM65.0822 3.98H78.8022V6.08H65.0822V3.98ZM65.5022 15.12H78.3022V21.58H65.5022V15.12ZM75.7022 17.2H68.1022V19.48H75.7022V17.2ZM63.5422 11.64H80.3022V13.76H63.5422V11.64Z" fill="#1C1C1C"/>
</svg>
